<?xml version="1.0" encoding="utf-8"?>
<!-- Generator: Adobe Illustrator 27.0.1, SVG Export Plug-In . SVG Version: 6.00 Build 0)  -->
<svg version="1.1" id="Layer_1" xmlns="http://www.w3.org/2000/svg" xmlns:xlink="http://www.w3.org/1999/xlink" x="0px" y="0px"
	 viewBox="0 0 1131 200" style="enable-background:new 0 0 1131 200;" xml:space="preserve">
<style type="text/css">
	.st0{fill:url(#SVGID_1_);}
	.st1{fill:#0023A0;}
	.st2{fill:#FFAB00;}
	.st3{fill:url(#SVGID_00000019650171558723692440000018061988214550926217_);}
	.st4{fill-rule:evenodd;clip-rule:evenodd;fill:#FBB231;}
	.st5{fill-rule:evenodd;clip-rule:evenodd;fill:#EC1B2E;}
	.st6{fill-rule:evenodd;clip-rule:evenodd;fill:#FFFFFF;}
	.st7{fill:none;stroke:#FFFFFF;stroke-width:0.2802;stroke-miterlimit:2.61;}
	.st8{fill:url(#SVGID_00000026161745677033090050000001573822303032492456_);}
	.st9{fill:#FFFFFF;}
	.st10{fill:url(#SVGID_00000057140962437305784440000002575169464293084562_);}
	.st11{fill-rule:evenodd;clip-rule:evenodd;}
	.st12{fill:none;stroke:#000000;stroke-width:1.5663;stroke-linecap:round;stroke-miterlimit:3.86;}
	.st13{fill:url(#SVGID_00000098906571796412088580000015879360693333469364_);}
	.st14{fill:#FF6600;}
</style>
<g>
	<g id="Visa">
		
			<linearGradient id="SVGID_1_" gradientUnits="userSpaceOnUse" x1="158.6485" y1="183.1102" x2="158.6485" y2="20.8897" gradientTransform="matrix(1 0 0 -1 0 202)">
			<stop  offset="0" style="stop-color:#EDEDED"/>
			<stop  offset="1" style="stop-color:#A7A7A7"/>
		</linearGradient>
		<path class="st0" d="M53.6,18.9h210.1c13.7,0,24.9,11.1,24.9,24.9v112.5c0,13.7-11.1,24.9-24.9,24.9H53.6
			c-13.7,0-24.9-11.1-24.9-24.9V43.7C28.8,30,39.9,18.9,53.6,18.9z"/>
		<path class="st1" d="M191.7,65.3c-17.2,0-29.3,9.1-29.4,22.2c-0.1,9.7,8.6,15.1,15.2,18.3c6.8,3.3,9,5.4,9,8.3
			c-0.1,4.5-5.4,6.6-10.4,6.6c-5.7,0.2-11.3-1-16.3-3.5l-2.3-1.1l-2.4,15.1c4.1,1.9,11.6,3.5,19.4,3.6c18.2,0,30.1-9,30.2-22.9
			c0.1-7.6-4.6-13.5-14.6-18.3c-6-3.1-9.8-5.2-9.7-8.3c0-2.8,3.1-5.8,10-5.8c4.5-0.1,8.9,0.7,13,2.5l1.6,0.8l2.4-14.5
			C202.3,66.3,197,65.3,191.7,65.3L191.7,65.3z M137.8,66.5l-10.9,67.3h17.4l10.9-67.3H137.8z M112.3,66.5l-17,45.8l-1.8-9.3
			c-4.2-11.5-13.4-23.4-24.1-28.3L85,133.6h18.4l27.3-67.1L112.3,66.5z M238.4,66.5c-4.2,0-7.3,1.2-9.1,5.6l-25.8,61.6h18.2
			c0,0,3-8.3,3.7-10.1h22.2c0.5,2.3,2.1,10.1,2.1,10.1h16.1l-14-67.2L238.4,66.5z M239.7,84.6l1.2,5.8l4,19.4h-14.4
			c1.4-3.8,6.9-18.8,6.9-18.8S238.7,87.1,239.7,84.6L239.7,84.6z"/>
		<path class="st2" d="M79.6,66.5h-28l-0.2,1.2c21.8,5.6,36.2,19.3,42.1,35.4l-6.1-30.9C86.4,67.9,83.4,66.6,79.6,66.5"/>
	</g>
	<g id="MasterCard">
		
			<linearGradient id="SVGID_00000040565656481937098680000008175185020125574325_" gradientUnits="userSpaceOnUse" x1="429.8862" y1="183.1102" x2="429.8862" y2="20.8897" gradientTransform="matrix(1 0 0 -1 0 202)">
			<stop  offset="0" style="stop-color:#72ADE2"/>
			<stop  offset="1" style="stop-color:#05518D"/>
		</linearGradient>
		<path style="fill:url(#SVGID_00000040565656481937098680000008175185020125574325_);" d="M324.9,18.9h210.1
			c13.7,0,24.9,11.1,24.9,24.9v112.5c0,13.7-11.1,24.9-24.9,24.9H324.9c-13.7,0-24.9-11.1-24.9-24.9V43.7
			C300,30,311.1,18.9,324.9,18.9z"/>
		<polygon class="st4" points="464,151 466.6,150.9 469.2,150.7 471.8,150.4 474.3,149.9 476.7,149.4 479.2,148.7 481.5,147.9 
			483.9,147 486.1,146 488.3,144.8 490.5,143.6 492.6,142.3 494.6,140.8 496.5,139.3 498.3,137.7 500.1,136 501.8,134.2 
			503.4,132.4 504.9,130.5 506.4,128.5 507.7,126.4 508.9,124.3 510,122 511.1,119.8 512,117.5 512.8,115.1 513.5,112.7 514,110.2 
			514.5,107.7 514.8,105.1 515,102.5 515.1,99.9 515,97.3 514.8,94.7 514.5,92.2 514,89.7 513.5,87.2 512.8,84.8 512,82.4 
			511.1,80.1 510,77.9 508.9,75.7 507.7,73.5 506.4,71.5 504.9,69.5 503.4,67.6 501.8,65.7 500.1,63.9 498.3,62.2 496.5,60.6 
			494.6,59.1 492.6,57.7 490.5,56.4 488.3,55.2 486.1,54 483.9,53 481.5,52.1 479.2,51.3 476.7,50.6 474.3,50 471.8,49.6 
			469.2,49.3 466.6,49.1 464,49 461.4,49.1 458.8,49.3 456.2,49.6 453.7,50 451.3,50.6 448.8,51.3 446.5,52.1 444.2,53 441.9,54 
			439.7,55.2 437.6,56.4 435.5,57.7 433.5,59.1 431.6,60.6 429.8,62.2 428,63.9 426.3,65.7 424.7,67.6 423.2,69.5 421.8,71.5 
			420.5,73.5 419.2,75.7 418.1,77.9 417.1,80.1 416.2,82.4 415.4,84.8 414.7,87.2 414.1,89.7 413.7,92.2 413.3,94.7 413.2,97.3 
			413.1,99.9 413.2,102.5 413.3,105.1 413.7,107.7 414.1,110.2 414.7,112.7 415.4,115.1 416.2,117.5 417.1,119.8 418.1,122 
			419.2,124.3 420.5,126.4 421.8,128.5 423.2,130.5 424.7,132.4 426.3,134.2 428,136 429.8,137.7 431.6,139.3 433.5,140.8 
			435.5,142.3 437.6,143.6 439.7,144.8 441.9,146 444.2,147 446.5,147.9 448.8,148.7 451.3,149.4 453.7,149.9 456.2,150.4 
			458.8,150.7 461.4,150.9 464,151 464,151 		"/>
		<polygon class="st5" points="395.8,151 398.4,150.9 401,150.7 403.5,150.4 406,149.9 408.5,149.4 410.9,148.7 413.3,147.9 
			415.6,147 417.9,146 420,144.8 422.2,143.6 424.2,142.3 426.2,140.8 428.2,139.3 430,137.7 431.8,136 433.5,134.2 435.1,132.4 
			436.6,130.5 438,128.5 439.3,126.4 440.5,124.3 441.7,122 442.7,119.8 443.6,117.5 444.4,115.1 445.1,112.7 445.6,110.2 
			446.1,107.7 446.4,105.1 446.6,102.5 446.7,99.9 446.6,97.3 446.4,94.7 446.1,92.2 445.6,89.7 445.1,87.2 444.4,84.8 443.6,82.4 
			442.7,80.1 441.7,77.9 440.5,75.7 439.3,73.5 438,71.5 436.6,69.5 435.1,67.6 433.5,65.7 431.8,63.9 430,62.2 428.2,60.6 
			426.2,59.1 424.2,57.7 422.2,56.4 420,55.2 417.9,54 415.6,53 413.3,52.1 410.9,51.3 408.5,50.6 406,50 403.5,49.6 401,49.3 
			398.4,49.1 395.8,49 393.1,49.1 390.5,49.3 388,49.6 385.5,50 383,50.6 380.6,51.3 378.2,52.1 375.9,53 373.6,54 371.4,55.2 
			369.3,56.4 367.2,57.7 365.2,59.1 363.3,60.6 361.4,62.2 359.6,63.9 357.9,65.7 356.3,67.6 354.8,69.5 353.4,71.5 352.1,73.5 
			350.8,75.7 349.7,77.9 348.7,80.1 347.8,82.4 347,84.8 346.3,87.2 345.7,89.7 345.3,92.2 344.9,94.7 344.7,97.3 344.7,99.9 
			344.7,102.5 344.9,105.1 345.3,107.7 345.7,110.2 346.3,112.7 347,115.1 347.8,117.5 348.7,119.8 349.7,122 350.8,124.3 
			352.1,126.4 353.4,128.5 354.8,130.5 356.3,132.4 357.9,134.2 359.6,136 361.4,137.7 363.3,139.3 365.2,140.8 367.2,142.3 
			369.3,143.6 371.4,144.8 373.6,146 375.9,147 378.2,147.9 380.6,148.7 383,149.4 385.5,149.9 388,150.4 390.5,150.7 393.1,150.9 
			395.8,151 395.8,151 		"/>
		<polygon class="st4" points="423.9,68.6 451,68.6 451,65.8 426.2,65.8 423.9,68.6 423.9,68.6 		"/>
		<polygon class="st4" points="419.9,74.7 451,74.7 451,71.9 421.5,71.9 419.9,74.7 419.9,74.7 		"/>
		<polygon class="st4" points="416.8,80.9 451,80.9 451,78.1 418,78.1 416.8,80.9 416.8,80.9 		"/>
		<polygon class="st4" points="414.7,87 451,87 451,84.2 415.6,84.2 414.7,87 414.7,87 		"/>
		<polygon class="st4" points="415.9,116.8 451.1,116.8 451.1,114 415.1,114 415.9,116.8 415.9,116.8 		"/>
		<polygon class="st4" points="418.5,122.9 451.1,122.9 451.1,120.2 417.3,120.2 418.5,122.9 418.5,122.9 		"/>
		<polygon class="st4" points="422.2,129.1 451.1,129.1 451.1,126.3 420.5,126.3 422.2,129.1 422.2,129.1 		"/>
		<polygon class="st4" points="427.2,135.2 451.1,135.2 451.1,132.4 424.8,132.4 427.2,135.2 427.2,135.2 		"/>
		<polygon class="st4" points="413.5,93.2 451,93.2 451,90.4 414.1,90.4 413.5,93.2 413.5,93.2 		"/>
		<polygon class="st4" points="436.4,110.6 450.7,110.6 450.7,107.9 436.9,107.9 436.4,110.6 436.4,110.6 		"/>
		<polygon class="st4" points="437.5,104.5 450.7,104.5 450.7,101.7 438,101.7 437.5,104.5 437.5,104.5 		"/>
		<polygon class="st4" points="412.6,101.7 416.3,101.7 416.3,104.5 412.7,104.5 412.6,101.7 412.6,101.7 		"/>
		<polygon class="st6" points="405.6,98.4 405.4,98.3 405.2,98.3 404.9,98.3 404.7,98.2 404.5,98.2 404.3,98.2 404.1,98.1 
			403.8,98.1 403.6,98.1 403.3,98 403,98 402.7,98 402.3,98 401.9,98 401.5,98.1 401,98.1 400.6,98.1 400.3,98.2 400,98.3 
			399.7,98.4 399.5,98.5 399.3,98.7 399.1,98.8 399,99 398.9,99.2 398.8,99.4 398.7,99.6 398.7,99.8 398.8,100 398.9,100.2 
			399,100.5 399.2,100.7 399.5,101 399.9,101.3 400.4,101.5 400.9,101.7 401.5,101.8 402,102 402.6,102.2 403.1,102.5 403.7,102.8 
			404.2,103.1 404.6,103.5 404.9,104.1 405.2,104.7 405.4,105.5 405.4,106.4 405.4,107.5 405.3,108.3 405.1,109 404.8,109.7 
			404.4,110.3 404,110.8 403.6,111.2 403.1,111.6 402.6,111.9 402,112.1 401.5,112.4 400.9,112.5 400.3,112.7 399.7,112.8 
			399.1,112.8 398.6,112.9 398,112.9 397.3,112.9 396.6,112.9 396,112.9 395.4,112.9 394.9,112.8 394.4,112.8 394,112.8 
			393.6,112.7 393.3,112.7 392.9,112.6 392.6,112.6 392.3,112.5 392,112.4 391.8,112.3 391.5,112.2 391.2,112.1 392,108.3 
			392.1,108.3 392.3,108.4 392.5,108.4 392.8,108.5 393.2,108.6 393.5,108.7 393.9,108.7 394.3,108.8 394.7,108.9 395.2,108.9 
			395.6,109 396.1,109 396.6,109.1 397.1,109.1 397.6,109.1 398.1,109.1 398.6,109 399,108.8 399.3,108.6 399.6,108.4 399.7,108.2 
			399.9,107.9 399.9,107.6 400,107.4 400,106.8 399.9,106.4 399.6,106.1 399.2,105.8 398.7,105.5 398.1,105.3 397.4,105 
			396.7,104.7 396,104.4 395.4,104.1 394.8,103.6 394.2,103.1 393.8,102.4 393.5,101.7 393.3,100.7 393.3,99.6 393.4,99 393.6,98.3 
			393.7,97.8 393.9,97.2 394.2,96.7 394.5,96.2 394.9,95.8 395.3,95.4 395.8,95.1 396.4,94.8 397,94.6 397.7,94.4 398.4,94.2 
			399.3,94.1 400.2,94 401.2,94 401.9,94 402.4,94 403,94 403.5,94.1 403.9,94.1 404.3,94.1 404.6,94.2 404.9,94.2 405.2,94.2 
			405.5,94.3 405.7,94.3 405.9,94.4 406.1,94.4 406.2,94.4 406.4,94.4 406.5,94.5 405.6,98.4 405.6,98.4 		"/>
		<polyline class="st7" points="405.6,98.4 405.6,98.4 405.4,98.3 405.2,98.3 404.9,98.3 404.7,98.2 404.5,98.2 404.3,98.2 
			404.1,98.1 403.8,98.1 403.6,98.1 403.3,98 403,98 402.7,98 402.3,98 401.9,98 401.5,98.1 401,98.1 401,98.1 400.6,98.1 
			400.3,98.2 400,98.3 399.7,98.4 399.5,98.5 399.3,98.7 399.1,98.8 399,99 398.9,99.2 398.8,99.4 398.7,99.6 398.7,99.8 398.8,100 
			398.9,100.2 399,100.5 399.2,100.7 399.2,100.7 399.5,101 399.9,101.3 400.4,101.5 400.9,101.7 401.5,101.8 402,102 402.6,102.2 
			403.1,102.5 403.7,102.8 404.2,103.1 404.6,103.5 404.9,104.1 405.2,104.7 405.4,105.5 405.4,106.4 405.4,107.5 405.4,107.5 
			405.3,108.3 405.1,109 404.8,109.7 404.4,110.3 404,110.8 403.6,111.2 403.1,111.6 402.6,111.9 402,112.1 401.5,112.4 
			400.9,112.5 400.3,112.7 399.7,112.8 399.1,112.8 398.6,112.9 398,112.9 398,112.9 397.3,112.9 396.6,112.9 396,112.9 
			395.4,112.9 394.9,112.8 394.4,112.8 394,112.8 393.6,112.7 393.3,112.7 392.9,112.6 392.6,112.6 392.3,112.5 392,112.4 
			391.8,112.3 391.5,112.2 391.2,112.1 392,108.3 392,108.3 392.1,108.3 392.3,108.4 392.5,108.4 392.8,108.5 393.2,108.6 
			393.5,108.7 393.9,108.7 394.3,108.8 394.7,108.9 395.2,108.9 395.6,109 396.1,109 396.6,109.1 397.1,109.1 397.6,109.1 
			398.1,109.1 398.1,109.1 398.6,109 399,108.8 399.3,108.6 399.6,108.4 399.7,108.2 399.9,107.9 399.9,107.6 400,107.4 400,107.4 
			400,106.8 399.9,106.4 399.6,106.1 399.2,105.8 398.7,105.5 398.1,105.3 397.4,105 396.7,104.7 396,104.4 395.4,104.1 
			394.8,103.6 394.2,103.1 393.8,102.4 393.5,101.7 393.3,100.7 393.3,99.6 393.3,99.6 393.4,99 393.6,98.3 393.7,97.8 393.9,97.2 
			394.2,96.7 394.5,96.2 394.9,95.8 395.3,95.4 395.8,95.1 396.4,94.8 397,94.6 397.7,94.4 398.4,94.2 399.3,94.1 400.2,94 
			401.2,94 401.2,94 401.9,94 402.4,94 403,94 403.5,94.1 403.9,94.1 404.3,94.1 404.6,94.2 404.9,94.2 405.2,94.2 405.5,94.3 
			405.7,94.3 405.9,94.4 406.1,94.4 406.2,94.4 406.4,94.4 406.5,94.5 405.6,98.4 		"/>
		<polygon class="st6" points="409.7,90.2 414.5,90.2 413.8,94.4 416.7,94.4 416,98.3 413,98.2 411.4,107.8 411.3,108.1 
			411.4,108.4 411.6,108.6 411.8,108.8 412.1,108.9 412.5,109 412.8,109.1 413.3,109.1 413.6,109.1 414,109.1 414.3,109 414.6,109 
			414.8,108.9 414.9,108.9 415.1,108.8 415.1,108.8 414.5,112 414.4,112.1 414.2,112.2 414.1,112.2 414,112.3 413.9,112.4 
			413.7,112.4 413.6,112.5 413.4,112.5 413.3,112.6 413.1,112.6 412.9,112.6 412.7,112.7 412.5,112.7 412.2,112.7 411.9,112.8 
			411.6,112.8 410.3,112.8 409.6,112.8 409,112.7 408.5,112.6 408,112.5 407.6,112.3 407.3,112.1 407,111.9 406.8,111.7 
			406.6,111.5 406.5,111.2 406.4,110.9 406.4,110.6 406.3,110.2 406.3,109.8 406.4,109.4 406.4,109 409.7,90.2 409.7,90.2 		"/>
		<polyline class="st7" points="409.7,90.2 414.5,90.2 413.8,94.4 416.7,94.4 416,98.3 413,98.2 411.4,107.8 411.4,107.8 
			411.3,108.1 411.4,108.4 411.6,108.6 411.8,108.8 412.1,108.9 412.5,109 412.8,109.1 413.3,109.1 413.3,109.1 413.6,109.1 
			414,109.1 414.3,109 414.6,109 414.8,108.9 414.9,108.9 415.1,108.8 415.1,108.8 414.5,112 414.5,112 414.4,112.1 414.2,112.2 
			414.1,112.2 414,112.3 413.9,112.4 413.7,112.4 413.6,112.5 413.4,112.5 413.3,112.6 413.1,112.6 412.9,112.6 412.7,112.7 
			412.5,112.7 412.2,112.7 411.9,112.8 411.6,112.8 410.3,112.8 410.3,112.8 409.6,112.8 409,112.7 408.5,112.6 408,112.5 
			407.6,112.3 407.3,112.1 407,111.9 406.8,111.7 406.6,111.5 406.5,111.2 406.4,110.9 406.4,110.6 406.3,110.2 406.3,109.8 
			406.4,109.4 406.4,109 409.7,90.2 		"/>
		<polygon class="st6" points="420.5,104.7 420.4,105 420.4,105.4 420.4,105.7 420.5,106 420.6,106.3 420.7,106.6 420.9,107 
			421.1,107.3 421.4,107.6 421.6,107.8 421.9,108.1 422.2,108.3 422.5,108.5 422.9,108.6 423.2,108.7 423.6,108.8 424,108.9 
			424.4,108.9 424.9,109 425.3,109 425.8,109 426.2,109 426.7,109 427.2,109 427.6,108.9 428.1,108.8 428.6,108.7 429,108.6 
			429.5,108.4 430,108.2 430.5,107.9 431,107.6 430.3,111.8 430,112 429.8,112.1 429.5,112.2 429.2,112.3 429,112.4 428.7,112.5 
			428.4,112.6 428.1,112.6 427.8,112.7 427.5,112.7 427.1,112.7 426.7,112.8 426.3,112.8 425.8,112.8 425.3,112.8 424.7,112.8 
			423.9,112.8 423,112.7 422.1,112.6 421.3,112.4 420.4,112.1 419.6,111.8 418.9,111.4 418.1,110.9 417.5,110.3 416.9,109.6 
			416.4,108.8 416,107.9 415.7,106.8 415.5,105.7 415.4,104.4 415.5,103 415.6,102.5 415.7,101.8 415.8,101.2 416,100.4 416.3,99.7 
			416.6,98.9 417,98.2 417.5,97.5 418,96.8 418.7,96.1 419.4,95.5 420.3,95 421.3,94.6 422.4,94.3 423.7,94.1 425,94 425.7,94 
			426.4,94.1 427.1,94.2 427.8,94.4 428.5,94.7 429.2,95 429.8,95.4 430.4,95.9 430.9,96.4 431.3,97.1 431.7,97.9 431.9,98.8 
			432.1,99.9 432.1,101 431.9,102.3 431.7,103.8 431.6,104.8 419.1,104.8 419.9,101.4 427.4,101.4 427.4,101 427.4,100.6 
			427.4,100.2 427.3,99.9 427.2,99.6 427.1,99.3 426.9,99 426.7,98.8 426.5,98.6 426.3,98.4 426,98.2 425.8,98.1 425.5,98 
			425.2,97.9 424.9,97.9 424.6,97.8 424.3,97.9 424,97.9 423.7,98 423.4,98.1 423.1,98.2 422.8,98.4 422.6,98.6 422.4,98.8 
			422.1,99 421.9,99.3 421.7,99.5 421.6,99.8 421.4,100.1 421.3,100.5 421.2,100.8 421.1,101.2 420.5,104.7 420.5,104.7 		"/>
		<polyline class="st7" points="420.5,104.7 420.5,104.7 420.4,105 420.4,105.4 420.4,105.7 420.5,106 420.6,106.3 420.7,106.6 
			420.9,107 421.1,107.3 421.4,107.6 421.6,107.8 421.9,108.1 422.2,108.3 422.5,108.5 422.9,108.6 423.2,108.7 423.6,108.8 
			423.6,108.8 424,108.9 424.4,108.9 424.9,109 425.3,109 425.8,109 426.2,109 426.7,109 427.2,109 427.6,108.9 428.1,108.8 
			428.6,108.7 429,108.6 429.5,108.4 430,108.2 430.5,107.9 431,107.6 430.3,111.8 430.3,111.8 430,112 429.8,112.1 429.5,112.2 
			429.2,112.3 429,112.4 428.7,112.5 428.4,112.6 428.1,112.6 427.8,112.7 427.5,112.7 427.1,112.7 426.7,112.8 426.3,112.8 
			425.8,112.8 425.3,112.8 424.7,112.8 424.7,112.8 423.9,112.8 423,112.7 422.1,112.6 421.3,112.4 420.4,112.1 419.6,111.8 
			418.9,111.4 418.1,110.9 417.5,110.3 416.9,109.6 416.4,108.8 416,107.9 415.7,106.8 415.5,105.7 415.4,104.4 415.5,103 
			415.5,103 415.6,102.5 415.7,101.8 415.8,101.2 416,100.4 416.3,99.7 416.6,98.9 417,98.2 417.5,97.5 418,96.8 418.7,96.1 
			419.4,95.5 420.3,95 421.3,94.6 422.4,94.3 423.7,94.1 425,94 425,94 425.7,94 426.4,94.1 427.1,94.2 427.8,94.4 428.5,94.7 
			429.2,95 429.8,95.4 430.4,95.9 430.9,96.4 431.3,97.1 431.7,97.9 431.9,98.8 432.1,99.9 432.1,101 431.9,102.3 431.7,103.8 
			431.6,104.8 419.1,104.8 419.9,101.4 427.4,101.4 427.4,101.4 427.4,101 427.4,100.6 427.4,100.2 427.3,99.9 427.2,99.6 
			427.1,99.3 426.9,99 426.7,98.8 426.5,98.6 426.3,98.4 426,98.2 425.8,98.1 425.5,98 425.2,97.9 424.9,97.9 424.6,97.8 
			424.6,97.8 424.3,97.9 424,97.9 423.7,98 423.4,98.1 423.1,98.2 422.8,98.4 422.6,98.6 422.4,98.8 422.1,99 421.9,99.3 
			421.7,99.5 421.6,99.8 421.4,100.1 421.3,100.5 421.2,100.8 421.1,101.2 420.5,104.7 		"/>
		<polygon class="st6" points="461.5,95.4 461.3,95.3 461,95.2 460.8,95.1 460.5,95 460.3,94.8 460,94.7 459.7,94.6 459.4,94.5 
			459.1,94.4 458.7,94.4 458.4,94.3 458,94.3 457.6,94.2 457.2,94.2 456.8,94.2 456.4,94.2 455.9,94.2 455.5,94.2 455,94.3 
			454.6,94.4 454.1,94.5 453.6,94.7 453.1,94.9 452.6,95.2 452.2,95.6 451.7,96.1 451.3,96.6 450.9,97.3 450.5,98 450.1,98.9 
			449.8,99.8 449.5,100.9 449.4,101.5 449.4,102.1 449.3,102.8 449.3,103.3 449.4,103.9 449.5,104.5 449.7,105 449.9,105.5 
			450.1,106 450.4,106.4 450.8,106.8 451.2,107.2 451.7,107.5 452.2,107.7 452.8,108 453.4,108.1 453.6,108.2 453.9,108.2 
			454.2,108.3 454.6,108.3 454.9,108.3 455.3,108.3 455.8,108.3 456.2,108.3 456.6,108.2 457.1,108.2 457.5,108 458,107.9 
			458.4,107.7 458.8,107.5 459.1,107.2 459.5,106.9 458.7,111.5 458.6,111.6 458.5,111.7 458.4,111.8 458.2,111.9 458,112 
			457.8,112.2 457.5,112.3 457.2,112.4 456.8,112.5 456.3,112.6 455.8,112.7 455.2,112.7 454.6,112.8 453.8,112.8 452.9,112.8 
			452,112.7 451.2,112.6 450.4,112.5 449.6,112.2 448.8,111.8 448,111.4 447.3,110.9 446.6,110.3 446,109.6 445.4,108.9 444.9,108 
			444.5,107 444.2,106 444,104.8 443.9,103.6 444,102.3 444.2,100.8 444.3,100.1 444.5,99.5 444.6,98.8 444.8,98.1 445,97.5 
			445.2,96.9 445.4,96.4 445.7,95.8 445.9,95.3 446.2,94.8 446.5,94.3 446.8,93.9 447.1,93.4 447.4,93 447.8,92.7 448.1,92.3 
			448.5,92 448.9,91.6 449.4,91.3 449.8,91.1 450.2,90.8 450.7,90.6 451.2,90.4 451.7,90.2 452.2,90 452.8,89.9 453.3,89.8 
			453.9,89.7 454.5,89.6 455.1,89.5 455.7,89.5 456.4,89.4 456.9,89.5 457.5,89.5 458,89.5 458.5,89.6 459,89.7 459.4,89.8 
			459.9,89.9 460.3,90 460.7,90.1 461,90.2 461.4,90.3 461.6,90.4 461.9,90.5 462.1,90.5 462.2,90.6 462.3,90.6 461.5,95.4 
			461.5,95.4 		"/>
		<polyline class="st7" points="461.5,95.4 461.5,95.4 461.3,95.3 461,95.2 460.8,95.1 460.5,95 460.3,94.8 460,94.7 459.7,94.6 
			459.4,94.5 459.1,94.4 458.7,94.4 458.4,94.3 458,94.3 457.6,94.2 457.2,94.2 456.8,94.2 456.4,94.2 456.4,94.2 455.9,94.2 
			455.5,94.2 455,94.3 454.6,94.4 454.1,94.5 453.6,94.7 453.1,94.9 452.6,95.2 452.2,95.6 451.7,96.1 451.3,96.6 450.9,97.3 
			450.5,98 450.1,98.9 449.8,99.8 449.5,100.9 449.5,100.9 449.4,101.5 449.4,102.1 449.3,102.8 449.3,103.3 449.4,103.9 
			449.5,104.5 449.7,105 449.9,105.5 450.1,106 450.4,106.4 450.8,106.8 451.2,107.2 451.7,107.5 452.2,107.7 452.8,108 
			453.4,108.1 453.4,108.1 453.6,108.2 453.9,108.2 454.2,108.3 454.6,108.3 454.9,108.3 455.3,108.3 455.8,108.3 456.2,108.3 
			456.6,108.2 457.1,108.2 457.5,108 458,107.9 458.4,107.7 458.8,107.5 459.1,107.2 459.5,106.9 458.7,111.5 458.7,111.5 
			458.6,111.6 458.5,111.7 458.4,111.8 458.2,111.9 458,112 457.8,112.2 457.5,112.3 457.2,112.4 456.8,112.5 456.3,112.6 
			455.8,112.7 455.2,112.7 454.6,112.8 453.8,112.8 452.9,112.8 452,112.7 452,112.7 451.2,112.6 450.4,112.5 449.6,112.2 
			448.8,111.8 448,111.4 447.3,110.9 446.6,110.3 446,109.6 445.4,108.9 444.9,108 444.5,107 444.2,106 444,104.8 443.9,103.6 
			444,102.3 444.2,100.8 444.2,100.8 444.3,100.1 444.5,99.5 444.6,98.8 444.8,98.1 445,97.5 445.2,96.9 445.4,96.4 445.7,95.8 
			445.9,95.3 446.2,94.8 446.5,94.3 446.8,93.9 447.1,93.4 447.4,93 447.8,92.7 448.1,92.3 448.5,92 448.9,91.6 449.4,91.3 
			449.8,91.1 450.2,90.8 450.7,90.6 451.2,90.4 451.7,90.2 452.2,90 452.8,89.9 453.3,89.8 453.9,89.7 454.5,89.6 455.1,89.5 
			455.7,89.5 456.4,89.4 456.4,89.4 456.9,89.5 457.5,89.5 458,89.5 458.5,89.6 459,89.7 459.4,89.8 459.9,89.9 460.3,90 
			460.7,90.1 461,90.2 461.4,90.3 461.6,90.4 461.9,90.5 462.1,90.5 462.2,90.6 462.3,90.6 461.5,95.4 		"/>
		<polygon class="st6" points="503.8,112.8 499.1,112.8 499.4,110.9 499.4,110.7 499.1,111.1 498.8,111.4 498.5,111.6 498.2,111.9 
			497.9,112.1 497.6,112.3 497.3,112.5 497,112.6 496.7,112.7 496.3,112.8 496,112.9 495.7,113 495.3,113 495,113 494.6,113.1 
			494.3,113.1 493.4,113 492.6,112.8 491.8,112.5 491.1,112.1 490.5,111.6 490,111 489.5,110.4 489.1,109.7 488.7,108.9 
			488.5,108.1 488.3,107.2 488.1,106.4 488.1,105.5 488.1,104.6 488.2,103.7 488.3,102.8 488.6,101.8 488.9,100.9 489.3,100 
			489.7,99.2 490.1,98.4 490.7,97.7 491.2,97.1 491.7,96.5 492.4,96 493,95.6 493.6,95.2 494.3,94.9 495,94.7 495.7,94.5 
			496.4,94.4 497.1,94.4 497.6,94.4 498.1,94.4 498.5,94.5 498.9,94.7 499.3,94.8 499.6,95 500,95.1 500.3,95.3 500.6,95.5 
			500.8,95.8 501.1,96 501.3,96.2 501.4,96.4 501.6,96.6 501.7,96.8 501.8,97.1 501.8,97.1 503,90.3 507.7,90.3 503.8,112.8 
			503.8,112.8 		"/>
		<polyline class="st7" points="503.8,112.8 499.1,112.8 499.4,110.9 499.4,110.7 499.4,110.7 499.1,111.1 498.8,111.4 498.5,111.6 
			498.2,111.9 497.9,112.1 497.6,112.3 497.3,112.5 497,112.6 496.7,112.7 496.3,112.8 496,112.9 495.7,113 495.3,113 495,113 
			494.6,113.1 494.3,113.1 494.3,113.1 493.4,113 492.6,112.8 491.8,112.5 491.1,112.1 490.5,111.6 490,111 489.5,110.4 
			489.1,109.7 488.7,108.9 488.5,108.1 488.3,107.2 488.1,106.4 488.1,105.5 488.1,104.6 488.2,103.7 488.3,102.8 488.3,102.8 
			488.6,101.8 488.9,100.9 489.3,100 489.7,99.2 490.1,98.4 490.7,97.7 491.2,97.1 491.7,96.5 492.4,96 493,95.6 493.6,95.2 
			494.3,94.9 495,94.7 495.7,94.5 496.4,94.4 497.1,94.4 497.1,94.4 497.6,94.4 498.1,94.4 498.5,94.5 498.9,94.7 499.3,94.8 
			499.6,95 500,95.1 500.3,95.3 500.6,95.5 500.8,95.8 501.1,96 501.3,96.2 501.4,96.4 501.6,96.6 501.7,96.8 501.8,97.1 
			501.8,97.1 503,90.3 507.7,90.3 503.8,112.8 		"/>
		<polygon class="st4" points="496,108.6 496.5,108.6 497,108.5 497.4,108.4 497.8,108.2 498.1,108 498.5,107.7 498.8,107.4 
			499.1,107.1 499.4,106.8 499.6,106.4 499.8,106 500,105.6 500.2,105.2 500.3,104.7 500.4,104.2 500.5,103.8 500.6,103.3 
			500.7,102.8 500.7,102.3 500.6,101.9 500.6,101.4 500.5,101 500.4,100.6 500.3,100.2 500.1,99.8 499.9,99.5 499.7,99.2 499.4,99 
			499.1,98.8 498.8,98.6 498.5,98.6 498.1,98.5 497.7,98.6 497.2,98.6 496.8,98.8 496.4,98.9 496.1,99.2 495.7,99.4 495.5,99.7 
			495.2,100.1 494.9,100.4 494.7,100.8 494.4,101.2 494.2,101.7 494.1,102.1 493.9,102.6 493.8,103.1 493.7,103.6 493.6,104.4 
			493.6,105.2 493.8,106 494,106.8 494.3,107.6 494.8,108.1 495.4,108.5 496,108.6 496,108.6 		"/>
		<polygon class="st6" points="390.4,109 389.7,112.8 385.4,112.8 385.5,112.1 385.6,111.5 385.7,111 385.7,110.7 385.5,111 
			385.2,111.3 384.9,111.5 384.5,111.8 384.1,112 383.7,112.2 383.2,112.4 382.8,112.6 382.3,112.8 381.8,112.9 381.3,113 
			380.8,113 380.3,113.1 379.8,113.1 379.3,113 378.8,113 378.2,112.8 377.7,112.7 377.2,112.4 376.7,112.2 376.4,111.9 376,111.6 
			375.8,111.3 375.5,110.9 375.3,110.6 375.1,110.2 375,109.8 374.9,109.4 374.8,109 374.8,108.6 374.7,108.2 374.7,107.9 
			374.8,107.2 374.9,106.6 375.1,106 375.3,105.4 375.6,104.8 375.9,104.3 376.2,103.8 376.6,103.4 377.1,103 377.5,102.7 
			378.1,102.3 378.6,102 379.1,101.8 379.7,101.6 380.3,101.5 380.9,101.4 380.9,101.4 381,101.3 381.1,101.3 381.3,101.3 
			381.5,101.3 381.8,101.3 382,101.2 382.3,101.2 382.6,101.2 382.9,101.1 383.2,101.1 383.5,101.1 383.8,101.1 384,101 384.2,101 
			384.4,101 384.8,101 385.2,101 385.6,101.1 386,101.1 386.3,101.1 386.6,101.1 386.7,101.1 386.8,101.1 386.8,101 386.9,100.7 
			387,100.3 387,100 387,99.6 386.8,99.3 386.6,98.9 386.3,98.7 386,98.5 385.6,98.3 385.2,98.2 384.8,98.2 384.3,98.2 383.8,98.1 
			383.2,98.1 382.7,98.2 382.1,98.2 381.6,98.2 381,98.3 380.5,98.4 380,98.4 379.5,98.5 379,98.6 378.6,98.7 378.2,98.8 
			377.9,98.9 377.7,99 377.5,99.1 378.7,95 379.1,94.8 379.5,94.7 379.9,94.6 380.3,94.5 380.7,94.4 381.2,94.3 381.6,94.3 
			382.1,94.2 382.6,94.2 383.1,94.2 383.6,94.1 384.1,94.1 384.7,94.1 385.2,94.1 385.8,94.2 386.4,94.2 386.9,94.2 387.4,94.3 
			388,94.4 388.5,94.6 389,94.8 389.6,95 390.1,95.3 390.6,95.7 391,96 391.4,96.4 391.7,96.9 392,97.4 392.1,98 392.2,98.6 
			392.2,99.2 392.1,99.9 390.4,109 390.4,109 		"/>
		<polyline class="st7" points="390.4,109 389.7,112.8 385.4,112.8 385.4,112.8 385.5,112.1 385.6,111.5 385.7,111 385.7,110.7 
			385.7,110.7 385.5,111 385.2,111.3 384.9,111.5 384.5,111.8 384.1,112 383.7,112.2 383.2,112.4 382.8,112.6 382.3,112.8 
			381.8,112.9 381.3,113 380.8,113 380.3,113.1 379.8,113.1 379.3,113 378.8,113 378.8,113 378.2,112.8 377.7,112.7 377.2,112.4 
			376.7,112.2 376.4,111.9 376,111.6 375.8,111.3 375.5,110.9 375.3,110.6 375.1,110.2 375,109.8 374.9,109.4 374.8,109 
			374.8,108.6 374.7,108.2 374.7,107.9 374.7,107.9 374.8,107.2 374.9,106.6 375.1,106 375.3,105.4 375.6,104.8 375.9,104.3 
			376.2,103.8 376.6,103.4 377.1,103 377.5,102.7 378.1,102.3 378.6,102 379.1,101.8 379.7,101.6 380.3,101.5 380.9,101.4 
			380.9,101.4 380.9,101.4 381,101.3 381.1,101.3 381.3,101.3 381.5,101.3 381.8,101.3 382,101.2 382.3,101.2 382.6,101.2 
			382.9,101.1 383.2,101.1 383.5,101.1 383.8,101.1 384,101 384.2,101 384.4,101 384.4,101 384.8,101 385.2,101 385.6,101.1 
			386,101.1 386.3,101.1 386.6,101.1 386.7,101.1 386.8,101.1 386.8,101.1 386.8,101 386.9,100.7 387,100.3 387,100 387,100 
			387,99.6 386.8,99.3 386.6,98.9 386.3,98.7 386,98.5 385.6,98.3 385.2,98.2 384.8,98.2 384.8,98.2 384.3,98.2 383.8,98.1 
			383.2,98.1 382.7,98.2 382.1,98.2 381.6,98.2 381,98.3 380.5,98.4 380,98.4 379.5,98.5 379,98.6 378.6,98.7 378.2,98.8 
			377.9,98.9 377.7,99 377.5,99.1 378.7,95 378.7,95 379.1,94.8 379.5,94.7 379.9,94.6 380.3,94.5 380.7,94.4 381.2,94.3 
			381.6,94.3 382.1,94.2 382.6,94.2 383.1,94.2 383.6,94.1 384.1,94.1 384.7,94.1 385.2,94.1 385.8,94.2 386.4,94.2 386.4,94.2 
			386.9,94.2 387.4,94.3 388,94.4 388.5,94.6 389,94.8 389.6,95 390.1,95.3 390.6,95.7 391,96 391.4,96.4 391.7,96.9 392,97.4 
			392.1,98 392.2,98.6 392.2,99.2 392.1,99.9 390.4,109 		"/>
		<polygon class="st5" points="386.3,104.5 386.2,104.4 386.2,104.3 386.1,104.3 385.9,104.2 385.7,104.2 385.5,104.2 385.2,104.2 
			385,104.2 384.7,104.2 384.4,104.2 384.1,104.3 383.9,104.3 383.6,104.3 383.4,104.4 383.1,104.4 383,104.5 382.8,104.5 
			382.7,104.6 382.5,104.6 382.3,104.7 382.1,104.8 381.9,105 381.6,105.1 381.4,105.2 381.2,105.4 380.9,105.6 380.7,105.8 
			380.5,106 380.4,106.2 380.3,106.4 380.1,106.7 380.1,107 380.1,107.6 380.2,108 380.3,108.4 380.6,108.6 380.8,108.8 
			381.1,108.9 381.4,109 381.7,109 382.2,109 382.6,108.9 383.1,108.8 383.5,108.7 383.8,108.6 384.2,108.5 384.5,108.3 
			384.7,108.1 384.9,108 385.1,107.7 385.3,107.6 385.4,107.4 385.6,107.1 385.7,106.9 385.8,106.7 385.8,106.6 386,106.1 
			386.1,105.5 386.2,104.9 386.3,104.5 386.3,104.5 		"/>
		<polygon class="st6" points="354.2,112.8 349.5,112.8 353.4,90.2 361.6,90.2 362.3,103.6 368,90.2 376.5,90.2 372.5,112.8 
			367.8,112.8 370.8,95.9 370.6,95.9 363.6,112.8 358.3,112.8 358.3,112.1 358.1,110.2 358,107.6 357.8,104.5 357.6,101.4 
			357.5,98.7 357.4,96.7 357.3,95.9 357.3,95.9 357.2,95.9 357.1,95.9 357.1,95.9 354.2,112.8 354.2,112.8 		"/>
		<polyline class="st7" points="354.2,112.8 349.5,112.8 353.4,90.2 361.6,90.2 362.3,103.6 368,90.2 376.5,90.2 372.5,112.8 
			367.8,112.8 370.8,95.9 370.6,95.9 363.6,112.8 358.3,112.8 358.3,112.8 358.3,112.1 358.1,110.2 358,107.6 357.8,104.5 
			357.6,101.4 357.5,98.7 357.4,96.7 357.3,95.9 357.3,95.9 357.3,95.9 357.2,95.9 357.1,95.9 357.1,95.9 354.2,112.8 		"/>
		<polygon class="st6" points="475.8,109 475.1,112.8 470.8,112.8 470.8,112.1 470.8,111.5 470.8,111 470.8,110.8 470.6,111.1 
			470.4,111.3 470,111.6 469.7,111.8 469.3,112 468.9,112.2 468.5,112.4 468.1,112.6 467.6,112.8 467.1,112.9 466.6,113 466.2,113 
			465.7,113.1 465.2,113.1 464.7,113 464.3,113 463.6,112.8 463.1,112.7 462.6,112.4 462.2,112.2 461.8,111.9 461.4,111.6 
			461.2,111.3 460.9,110.9 460.7,110.6 460.6,110.2 460.4,109.8 460.3,109.4 460.3,109 460.2,108.6 460.2,108.2 460.2,107.9 
			460.2,107.2 460.3,106.6 460.5,106 460.7,105.4 461,104.8 461.3,104.3 461.6,103.8 462.1,103.4 462.5,103 463,102.7 463.5,102.3 
			464,102 464.5,101.8 465.1,101.6 465.7,101.5 466.2,101.4 466.3,101.4 466.4,101.3 466.5,101.3 466.7,101.3 466.9,101.3 
			467.1,101.3 467.4,101.2 467.7,101.2 467.9,101.2 468.3,101.1 468.5,101.1 468.8,101.1 469.1,101.1 469.4,101 469.6,101 
			469.8,101 470.2,101 470.6,101 471,101.1 471.4,101.1 471.7,101.1 472,101.1 472.1,101.1 472.2,101.1 472.3,101 472.3,100.7 
			472.4,100.3 472.4,100 472.3,99.6 472.2,99.3 472,98.9 471.7,98.7 471.4,98.5 471,98.3 470.6,98.2 470.2,98.2 469.8,98.2 
			469.2,98.1 468.7,98.1 468.2,98.2 467.6,98.2 467,98.2 466.5,98.3 465.9,98.4 465.4,98.4 464.9,98.5 464.5,98.6 464.1,98.7 
			463.7,98.8 463.4,98.9 463.1,99 463,99.1 464.2,95 464.5,94.8 464.9,94.7 465.3,94.6 465.7,94.5 466.2,94.4 466.6,94.3 
			467.1,94.3 467.5,94.2 468,94.2 468.5,94.2 469,94.1 469.5,94.1 470.1,94.1 470.6,94.1 471.2,94.2 471.8,94.2 472.3,94.2 
			472.8,94.3 473.3,94.4 473.9,94.6 474.4,94.8 474.9,95 475.4,95.3 475.9,95.7 476.4,96 476.7,96.4 477.1,96.9 477.4,97.4 
			477.6,98 477.7,98.6 477.7,99.2 477.6,99.9 475.8,109 475.8,109 		"/>
		<polygon class="st6" points="475.1,112.9 475.2,112.8 475.9,109 475.7,109 475,112.8 475.1,112.7 475.1,112.9 475.2,112.9 
			475.2,112.8 475.1,112.9 475.1,112.9 		"/>
		<polygon class="st6" points="470.6,112.8 470.8,112.9 475.1,112.9 475.1,112.7 470.8,112.7 470.9,112.8 470.6,112.8 470.6,112.9 
			470.8,112.9 470.6,112.8 470.6,112.8 		"/>
		<polygon class="st6" points="470.9,110.9 470.8,110.7 470.7,111 470.7,111.5 470.7,112.1 470.6,112.8 470.9,112.8 470.9,112.1 
			470.9,111.5 470.9,111 470.9,110.9 470.8,110.7 470.9,110.9 470.9,110.9 		"/>
		<polygon class="st6" points="464.2,113.1 464.2,113.1 464.7,113.1 465.2,113.2 465.7,113.2 466.2,113.1 466.7,113.1 467.1,113 
			467.6,112.9 468.1,112.7 468.5,112.5 469,112.3 469.4,112.1 469.8,111.9 470.1,111.6 470.4,111.4 470.7,111.1 470.9,110.9 
			470.8,110.7 470.5,111 470.3,111.2 470,111.5 469.7,111.7 469.3,111.9 468.9,112.1 468.5,112.3 468,112.5 467.6,112.7 
			467.1,112.8 466.6,112.9 466.2,112.9 465.7,113 465.2,113 464.7,112.9 464.3,112.9 464.3,112.9 464.2,113.1 464.2,113.1 		"/>
		<polygon class="st6" points="460.1,107.9 460.1,107.9 460.1,108.2 460.1,108.6 460.2,109 460.2,109.4 460.3,109.8 460.5,110.2 
			460.6,110.6 460.8,111 461.1,111.3 461.4,111.6 461.7,112 462.1,112.3 462.5,112.5 463,112.8 463.6,112.9 464.2,113.1 
			464.3,112.9 463.6,112.7 463.1,112.5 462.7,112.3 462.2,112.1 461.8,111.8 461.5,111.5 461.3,111.2 461,110.9 460.8,110.5 
			460.7,110.1 460.5,109.8 460.4,109.4 460.4,109 460.3,108.6 460.3,108.2 460.3,107.9 460.3,107.9 460.1,107.9 460.1,107.9 		"/>
		<polygon class="st6" points="466.2,101.3 466.2,101.3 465.6,101.4 465.1,101.5 464.5,101.7 463.9,101.9 463.4,102.2 462.9,102.6 
			462.4,102.9 462,103.3 461.6,103.8 461.2,104.2 460.9,104.8 460.6,105.3 460.4,105.9 460.2,106.5 460.1,107.2 460.1,107.9 
			460.3,107.9 460.3,107.2 460.4,106.6 460.6,106 460.8,105.4 461.1,104.9 461.4,104.4 461.7,103.9 462.1,103.5 462.6,103.1 
			463,102.7 463.5,102.4 464,102.1 464.6,101.9 465.1,101.7 465.7,101.6 466.2,101.5 466.2,101.5 466.2,101.3 466.2,101.3 		"/>
		<polygon class="st6" points="469.8,100.9 469.8,100.9 469.6,100.9 469.4,100.9 469.1,100.9 468.8,101 468.5,101 468.3,101 
			467.9,101.1 467.7,101.1 467.4,101.1 467.1,101.2 466.9,101.2 466.7,101.2 466.5,101.2 466.3,101.2 466.3,101.3 466.2,101.3 
			466.2,101.5 466.3,101.5 466.4,101.4 466.5,101.4 466.7,101.4 466.9,101.4 467.1,101.4 467.4,101.3 467.7,101.3 467.9,101.3 
			468.3,101.2 468.5,101.2 468.8,101.2 469.1,101.2 469.4,101.1 469.6,101.1 469.8,101.1 469.8,101.1 469.8,100.9 469.8,100.9 		"/>
		<polygon class="st6" points="472.1,101.1 472.2,101 472.1,101 472,101 471.7,101 471.4,100.9 471,100.9 470.6,100.9 470.2,100.9 
			469.8,100.9 469.8,101.1 470.2,101.1 470.6,101.1 471,101.2 471.4,101.2 471.7,101.2 472,101.2 472.1,101.2 472.2,101.2 
			472.3,101.1 472.2,101.2 472.3,101.2 472.3,101.1 472.1,101.1 472.1,101.1 		"/>
		<polygon class="st6" points="472.3,100 472.3,100 472.3,100.3 472.2,100.7 472.1,101 472.1,101.1 472.3,101.1 472.4,101 
			472.4,100.7 472.5,100.3 472.5,100 472.5,100 472.3,100 472.3,100 		"/>
		<polygon class="st6" points="470.2,98.3 470.2,98.3 470.6,98.3 471,98.4 471.3,98.6 471.6,98.8 471.9,99 472.1,99.3 472.2,99.6 
			472.3,100 472.5,100 472.4,99.6 472.3,99.2 472,98.9 471.8,98.6 471.4,98.4 471.1,98.2 470.7,98.1 470.2,98.1 470.2,98.1 
			470.2,98.3 470.2,98.3 		"/>
		<polygon class="st6" points="462.9,99.1 463,99.2 463.2,99.1 463.4,99 463.7,98.9 464.1,98.8 464.5,98.7 465,98.6 465.5,98.5 
			465.9,98.5 466.5,98.4 467,98.4 467.6,98.3 468.2,98.3 468.7,98.3 469.2,98.3 469.8,98.3 470.2,98.3 470.2,98.1 469.8,98.1 
			469.2,98 468.7,98 468.2,98.1 467.6,98.1 467,98.1 466.5,98.2 465.9,98.3 465.4,98.3 464.9,98.4 464.5,98.5 464.1,98.6 
			463.7,98.7 463.4,98.8 463.1,98.9 462.9,99 463.1,99.1 462.9,99.1 462.9,99.1 		"/>
		<polygon class="st6" points="464.1,94.9 464.1,95 462.9,99.1 463.1,99.1 464.3,95 464.2,95.1 464.1,94.9 464.1,94.9 464.1,95 
			464.1,94.9 464.1,94.9 		"/>
		<polygon class="st6" points="471.8,94.1 471.8,94.1 471.2,94 470.6,94 470.1,94 469.5,94 469,94 468.5,94.1 468,94.1 467.5,94.1 
			467.1,94.1 466.6,94.2 466.2,94.3 465.7,94.4 465.3,94.5 464.9,94.6 464.5,94.7 464.1,94.9 464.2,95.1 464.6,94.9 465,94.8 
			465.4,94.7 465.8,94.6 466.2,94.5 466.6,94.4 467.1,94.4 467.5,94.3 468,94.3 468.5,94.3 469,94.3 469.5,94.3 470.1,94.3 
			470.6,94.3 471.2,94.3 471.8,94.3 471.8,94.3 471.8,94.1 471.8,94.1 		"/>
		<polygon class="st6" points="477.7,99.9 477.7,99.9 477.8,99.2 477.8,98.6 477.7,98 477.5,97.4 477.2,96.8 476.8,96.4 476.4,95.9 
			476,95.6 475.5,95.2 475,94.9 474.4,94.7 473.9,94.5 473.3,94.3 472.8,94.2 472.3,94.1 471.8,94.1 471.8,94.3 472.3,94.3 
			472.8,94.4 473.3,94.5 473.8,94.7 474.4,94.9 474.9,95.1 475.4,95.4 475.9,95.7 476.3,96.1 476.7,96.5 477,97 477.3,97.5 
			477.4,98 477.6,98.6 477.6,99.2 477.5,99.9 477.5,99.9 477.7,99.9 477.7,99.9 		"/>
		<polygon class="st6" points="475.9,109 475.9,109 477.7,99.9 477.5,99.9 475.7,109 475.7,109 475.9,109 475.9,109 		"/>
		<polygon class="st4" points="471.6,104.5 471.6,104.4 471.5,104.3 471.4,104.2 471.2,104.2 471,104.2 470.8,104.2 470.5,104.2 
			470.3,104.2 470,104.2 469.7,104.2 469.5,104.3 469.2,104.3 468.9,104.4 468.7,104.4 468.5,104.5 468.3,104.5 468.2,104.5 
			468.1,104.6 467.9,104.6 467.7,104.7 467.5,104.8 467.3,104.9 467,105 466.8,105.2 466.6,105.3 466.4,105.5 466.2,105.7 
			466,105.9 465.8,106.2 465.7,106.4 465.6,106.7 465.6,107 465.5,107.6 465.6,108 465.8,108.4 466,108.6 466.2,108.8 466.5,108.9 
			466.8,109 467.1,109 467.6,109 468.1,108.9 468.5,108.8 468.9,108.7 469.3,108.6 469.7,108.4 470,108.2 470.2,108 470.5,107.9 
			470.7,107.6 470.9,107.4 471,107.2 471.1,107 471.2,106.8 471.3,106.6 471.3,106.4 471.4,105.9 471.5,105.4 471.6,104.9 
			471.6,104.5 471.6,104.5 		"/>
		<polygon class="st6" points="507,110.4 507.1,110.1 507.2,109.6 507.5,109.2 507.8,108.8 508.1,108.5 508.5,108.3 509,108.2 
			509.4,108.1 509.9,108.2 510.4,108.3 510.8,108.5 511.2,108.8 511.4,109.2 511.7,109.6 511.8,110.1 511.9,110.4 511.3,110.4 
			511.3,110.1 511.2,109.8 511.1,109.4 510.8,109.1 510.6,108.9 510.2,108.7 509.9,108.6 509.4,108.6 509.1,108.6 508.7,108.7 
			508.4,108.9 508.1,109.1 507.9,109.4 507.7,109.8 507.6,110.1 507.5,110.4 507,110.4 507,110.4 		"/>
		<polygon class="st6" points="508.6,110.4 508.6,109.4 509.5,109.4 509.7,109.4 509.9,109.5 510.1,109.5 510.2,109.6 510.3,109.7 
			510.4,109.8 510.4,109.9 510.4,110 510.4,110.2 510.4,110.3 510.3,110.4 510.3,110.4 509.5,110.4 509.6,110.4 509.7,110.4 
			509.8,110.4 509.9,110.3 510,110.3 510,110.2 510.1,110.2 510.1,110 510,109.9 510,109.9 509.9,109.8 509.9,109.8 509.8,109.8 
			509.7,109.8 509.6,109.8 509.5,109.8 509,109.8 509,110.4 508.6,110.4 508.6,110.4 		"/>
		<polygon class="st6" points="507,110.4 507,110.6 507.1,111 507.2,111.5 507.5,111.9 507.8,112.3 508.1,112.6 508.5,112.8 
			509,112.9 509.4,113 509.9,112.9 510.4,112.8 510.8,112.6 511.2,112.3 511.4,111.9 511.7,111.5 511.8,111 511.9,110.6 
			511.9,110.4 511.3,110.4 511.4,110.6 511.3,111 511.2,111.3 511.1,111.7 510.8,112 510.6,112.2 510.2,112.4 509.9,112.5 
			509.4,112.5 509.1,112.5 508.7,112.4 508.4,112.2 508.1,112 507.9,111.7 507.7,111.3 507.6,111 507.5,110.6 507.5,110.4 
			507,110.4 507,110.4 		"/>
		<polygon class="st6" points="508.6,110.4 508.6,111.5 509,111.5 509,110.6 509.4,110.6 510,111.5 510.3,111.5 509.8,110.6 
			509.9,110.6 510,110.6 510.1,110.6 510.2,110.5 510.3,110.4 509.5,110.4 509.4,110.5 509,110.5 509,110.4 508.6,110.4 
			508.6,110.4 		"/>
		<path class="st7" d="M507,110.6L507,110.6v-0.5l0.1-0.5l0.2-0.4l0.3-0.4l0.4-0.3l0.4-0.2l0.5-0.1h0.5l0,0h0.5l0.4,0.1l0.4,0.2
			l0.4,0.3l0.3,0.4l0.2,0.4l0.1,0.5v0.5l0,0v0.5l-0.1,0.5l-0.2,0.4l-0.3,0.3l-0.4,0.3l-0.4,0.2l-0.4,0.1h-0.5l0,0h-0.5l-0.5-0.1
			l-0.4-0.2l-0.4-0.3l-0.3-0.3l-0.2-0.4L507,111V110.6 M509,111.5h-0.4v-2.1h1.1h0.2h0.1h0.1l0.1,0.1l0.1,0.1v0.1v0.1l0,0v0.2v0.1
			v0.1l-0.1,0.1h-0.1h-0.1H510h-0.1l0.5,0.9H510l-0.5-0.9h-0.4L509,111.5 M509.5,110.4L509.5,110.4h0.2h0.1h0.1h0.1h0.1l0,0v-0.1
			v-0.1l0,0v-0.1l0,0l0,0H510h-0.1h-0.8v0.7h0.4 M509.5,112.9L509.5,112.9h0.4l0.4-0.1l0.3-0.2l0.3-0.2l0.2-0.3l0.2-0.3l0.1-0.4
			v-0.4l0,0v-0.4l-0.1-0.4l-0.2-0.3l-0.2-0.3l-0.3-0.2l-0.3-0.2l-0.4-0.1h-0.4l0,0h-0.4l-0.4,0.1l-0.3,0.2l-0.3,0.2l-0.2,0.3
			l-0.2,0.3l-0.1,0.4v0.4l0,0v0.4l0.1,0.4l0.2,0.3l0.2,0.3l0.3,0.2l0.3,0.2l0.4,0.1H509.5"/>
		<polygon class="st6" points="477.1,112.8 481.9,112.8 481.9,112.8 483.6,103 483.7,102.6 483.8,102.3 483.9,101.9 484.1,101.5 
			484.2,101.1 484.4,100.8 484.7,100.4 484.9,100.1 485.3,99.8 485.6,99.5 486,99.3 486.4,99.1 486.9,98.9 487.5,98.7 488.1,98.6 
			488.8,98.6 489,98.6 489.1,98.6 489.2,98.6 489.2,98.6 490,94.2 489.5,94.2 489,94.3 488.6,94.4 488.2,94.5 487.8,94.6 
			487.4,94.8 487.1,95 486.8,95.2 486.5,95.4 486.2,95.7 485.9,95.9 485.6,96.2 485.4,96.5 485.1,96.8 484.8,97.2 484.6,97.5 
			485.1,94.4 480.3,94.4 477.1,112.8 477.1,112.8 477.1,112.8 		"/>
		<polyline class="st7" points="477.1,112.8 481.9,112.8 481.9,112.8 483.6,103 483.6,103 483.7,102.6 483.8,102.3 483.9,101.9 
			484.1,101.5 484.2,101.1 484.4,100.8 484.7,100.4 484.9,100.1 485.3,99.8 485.6,99.5 486,99.3 486.4,99.1 486.9,98.9 487.5,98.7 
			488.1,98.6 488.8,98.6 488.8,98.6 489,98.6 489.1,98.6 489.2,98.6 489.2,98.6 490,94.2 490,94.2 489.5,94.2 489,94.3 488.6,94.4 
			488.2,94.5 487.8,94.6 487.4,94.8 487.1,95 486.8,95.2 486.5,95.4 486.2,95.7 485.9,95.9 485.6,96.2 485.4,96.5 485.1,96.8 
			484.8,97.2 484.6,97.5 485.1,94.4 480.3,94.4 477.1,112.8 477.1,112.8 		"/>
		<polygon class="st6" points="431.5,112.8 436.4,112.8 436.5,112.8 438.1,103 438.2,102.6 438.3,102.3 438.3,101.9 438.5,101.6 
			438.6,101.2 438.8,100.9 439,100.6 439.2,100.3 439.5,100 439.8,99.8 440.2,99.6 440.6,99.4 441.1,99.2 441.6,99.1 442.2,99 
			442.9,98.9 442.9,98.9 443,99 443.1,99 443.2,99 443.2,99 443.3,99 443.4,99 443.4,99 443.4,99 443.4,98.8 443.5,98.5 443.6,98.1 
			443.7,97.6 443.8,97.2 444,96.7 444.2,96.2 444.3,95.9 444.5,95.5 444.6,95.2 444.8,94.9 445,94.7 445.1,94.4 445.2,94.3 
			445.2,94.3 445.2,94.3 445.1,94.3 445,94.2 444.9,94.2 444.8,94.2 444.7,94.2 444.5,94.2 444.4,94.2 443.9,94.2 443.4,94.3 
			443,94.4 442.5,94.5 442.1,94.6 441.8,94.8 441.5,95 441.1,95.2 440.9,95.4 440.6,95.6 440.3,95.9 440.1,96.2 439.8,96.5 
			439.6,96.8 439.3,97.2 439,97.5 439.7,94.4 434.7,94.4 431.5,112.8 431.5,112.8 431.5,112.8 		"/>
		<polyline class="st7" points="431.5,112.8 436.4,112.8 436.5,112.8 438.1,103 438.1,103 438.2,102.6 438.3,102.3 438.3,101.9 
			438.5,101.6 438.6,101.2 438.8,100.9 439,100.6 439.2,100.3 439.5,100 439.8,99.8 440.2,99.6 440.6,99.4 441.1,99.2 441.6,99.1 
			442.2,99 442.9,98.9 442.9,98.9 442.9,98.9 443,99 443.1,99 443.2,99 443.2,99 443.3,99 443.4,99 443.4,99 443.4,99 443.4,99 
			443.4,98.8 443.5,98.5 443.6,98.1 443.7,97.6 443.8,97.2 444,96.7 444.2,96.2 444.2,96.2 444.3,95.9 444.5,95.5 444.6,95.2 
			444.8,94.9 445,94.7 445.1,94.4 445.2,94.3 445.2,94.3 445.2,94.3 445.2,94.3 445.1,94.3 445,94.2 444.9,94.2 444.8,94.2 
			444.7,94.2 444.5,94.2 444.4,94.2 444.4,94.2 443.9,94.2 443.4,94.3 443,94.4 442.5,94.5 442.1,94.6 441.8,94.8 441.5,95 
			441.1,95.2 440.9,95.4 440.6,95.6 440.3,95.9 440.1,96.2 439.8,96.5 439.6,96.8 439.3,97.2 439,97.5 439.7,94.4 434.7,94.4 
			431.5,112.8 431.5,112.8 		"/>
		<polygon class="st4" points="507.1,130.9 507.1,130.8 507.2,130.4 507.5,130 507.8,129.6 508.1,129.4 508.5,129.2 509,129 
			509.4,129 509.9,129 510.4,129.2 510.8,129.4 511.2,129.6 511.4,130 511.7,130.4 511.8,130.8 511.8,130.9 511.3,130.9 
			511.2,130.5 511.1,130.2 510.8,129.9 510.6,129.7 510.2,129.5 509.9,129.4 509.4,129.3 509.1,129.4 508.7,129.5 508.4,129.7 
			508.1,129.9 507.9,130.2 507.7,130.5 507.6,130.9 507.1,130.9 507.1,130.9 		"/>
		<polygon class="st4" points="508.6,130.9 508.6,130.3 509.5,130.3 509.7,130.3 509.9,130.3 510.1,130.4 510.2,130.4 510.3,130.5 
			510.4,130.6 510.4,130.7 510.4,130.9 510.1,130.9 510.1,130.8 510,130.7 510,130.7 509.9,130.6 509.9,130.6 509.8,130.6 
			509.7,130.6 509.6,130.6 509.5,130.6 509,130.6 509,130.9 508.6,130.9 508.6,130.9 		"/>
		<polygon class="st4" points="507,131.3 507.1,130.9 507.6,130.9 507.6,130.9 507.5,131.3 507,131.3 507,131.3 		"/>
		<polygon class="st4" points="508.6,131.3 508.6,130.9 509,130.9 509,131.2 509.4,131.2 509.6,131.2 509.7,131.2 509.8,131.2 
			509.9,131.1 510,131.1 510,131 510.1,130.9 510.1,130.9 510.4,130.9 510.4,130.9 510.4,131 510.4,131.1 510.3,131.2 510.2,131.3 
			508.6,131.3 508.6,131.3 		"/>
		<polygon class="st4" points="511.4,131.3 511.3,130.9 511.3,130.9 511.8,130.9 511.9,131.3 511.4,131.3 511.4,131.3 		"/>
		<polygon class="st4" points="507,131.3 507,131.3 507.1,131.8 507.2,132.3 507.5,132.7 507.8,133.1 508.1,133.4 508.5,133.6 
			509,133.7 509.4,133.8 509.9,133.7 510.4,133.6 510.8,133.4 511.2,133.1 511.4,132.7 511.7,132.3 511.8,131.8 511.9,131.3 
			511.9,131.3 511.4,131.3 511.4,131.3 511.3,131.7 511.2,132.1 511.1,132.4 510.8,132.7 510.6,133 510.2,133.2 509.9,133.3 
			509.4,133.3 509.1,133.3 508.7,133.2 508.4,133 508.1,132.7 507.9,132.4 507.7,132.1 507.6,131.7 507.5,131.3 507.5,131.3 
			507,131.3 507,131.3 		"/>
		<polygon class="st4" points="508.6,131.3 508.6,132.3 509,132.3 509,131.4 509.4,131.4 510,132.3 510.3,132.3 509.8,131.4 
			509.9,131.4 510,131.4 510.1,131.3 510.2,131.3 510.2,131.3 508.6,131.3 508.6,131.3 		"/>
	</g>
	<g id="American_Express">
		
			<radialGradient id="SVGID_00000125572789008169355000000014372498058129855137_" cx="701.1238" cy="130.677" r="161.6347" fx="557.9794" fy="55.6074" gradientTransform="matrix(1 0 0 -1.07 0 240.06)" gradientUnits="userSpaceOnUse">
			<stop  offset="0" style="stop-color:#9DD5F6"/>
			<stop  offset="7.000000e-02" style="stop-color:#98D3F5"/>
			<stop  offset="0.16" style="stop-color:#89CEF3"/>
			<stop  offset="0.25" style="stop-color:#70C6EF"/>
			<stop  offset="0.35" style="stop-color:#4EBBEA"/>
			<stop  offset="0.45" style="stop-color:#23ADE3"/>
			<stop  offset="0.5" style="stop-color:#0DA6E0"/>
			<stop  offset="1" style="stop-color:#2E77BC"/>
		</radialGradient>
		<path style="fill:url(#SVGID_00000125572789008169355000000014372498058129855137_);" d="M596.1,18.9h210.1
			c13.7,0,24.9,11.1,24.9,24.9v112.5c0,13.7-11.1,24.9-24.9,24.9H596.1c-13.7,0-24.9-11.1-24.9-24.9V43.7
			C571.2,30,582.4,18.9,596.1,18.9z"/>
		<polygon class="st9" points="649.9,115.8 649.9,120 662.2,120 662.2,124.8 649.9,124.8 649.9,129.5 663.7,129.5 670.1,122.6 
			664,115.8 		"/>
		<polygon class="st9" points="686,132.3 686,113.4 677.3,122.7 		"/>
		<path class="st9" d="M726.2,116.2c-0.8-0.4-1.8-0.5-2.7-0.4h-6.9v5.3h6.8c1,0.1,1.9-0.1,2.8-0.5c0.8-0.5,1.2-1.4,1.2-2.3
			C727.4,117.4,727,116.6,726.2,116.2z"/>
		<path class="st9" d="M698.9,115.8h-7.3v6h7.3c2.2,0,3.5-1.1,3.5-3.1S700.9,115.8,698.9,115.8z"/>
		<path class="st9" d="M803.3,122.6c-0.4-0.9-0.9-1.8-1.5-2.6c-0.3-0.4-0.4-0.9-0.4-1.4v-12.3h-2.1v9.7h-10.2
			c-0.8-0.1-1.6,0.1-2.3,0.4c-0.9,0.6-1.1,1.9-0.4,2.8c0.2,0.3,0.5,0.5,0.8,0.7c0.7,0.2,1.4,0.3,2.2,0.3l3,0.1
			c3.1,0.1,5.1,0.6,6.4,1.9c0.2,0.2,0.4,0.4,0.5,0.6c1.1,1.1,1.2,6.5,0,8.8c-1.4,2-4,3-7.6,3h-10.8v-5.1h10.8
			c0.8,0.1,1.6-0.1,2.3-0.6c0.4-0.4,0.7-1,0.7-1.5c0-0.6-0.2-1.2-0.7-1.6c-0.6-0.4-1.3-0.6-2-0.5c-5.3-0.2-11.9,0.2-11.9-7.3
			c0-3.4,2.2-7,8.1-7h11.2v-4.6h-10.4c-2.5-0.1-5,0.6-7,1.9v-1.9h-15.4c-2.5,0-5.3,0.6-6.7,1.9v-1.9h-27.5v1.9
			c-2.2-1.6-5.9-1.9-7.6-1.9h-18.1v1.9c-1.7-1.7-5.6-1.9-7.9-1.9h-20.3l-4.6,5l-4.3-5h-30.3V139h29.7l4.8-5.1l4.5,5.1h18.3v-7.7h1.8
			c2.7,0.2,5.3-0.2,7.8-1.2v8.9h15.1v-8.5h0.7c0.9,0,1,0,1,1v7.6h45.8c2.7,0.1,5.4-0.6,7.6-2.1v2.1H791c2.9,0,6.2-0.2,8.6-1.8
			c3-1.9,4.1-5.1,4.3-8.5C804.2,126.7,803.9,124.6,803.3,122.6z M698.6,126.5h-7v7.8h-10.9l-6.9-7.7l-7.2,7.7h-22.2v-23.5h22.6
			l6.9,7.7l7.1-7.7h17.9c4.5,0,9.5,1.3,9.5,7.7S703.5,126.5,698.6,126.5z M732.4,125.5c0.8,1.3,1.1,2.8,0.9,4.3v4.6h-5.6v-2.9
			c0-1.4,0.1-3.5-0.9-4.6c-0.8-0.8-2.1-1-4.1-1h-6v8.6H711v-23.5h13c2.8,0,4.9,0.1,6.8,1.1c1.9,1,3,3.1,2.9,5.2
			c0.1,2.7-1.5,5.2-4,6.3C730.7,123.9,731.7,124.6,732.4,125.5z M755.5,115.8h-13.2v4.3h12.8v4.8h-12.8v4.7h13.2v4.9h-18.7v-23.5
			h18.7V115.8z M769.8,134.4h-10.9v-5.1h10.9c0.8,0.1,1.6-0.1,2.3-0.6c0.4-0.4,0.7-1,0.7-1.5c0-0.6-0.2-1.2-0.7-1.6
			c-0.6-0.4-1.3-0.6-2-0.5c-5.2-0.2-11.8,0.2-11.8-7.3c0-3.4,2.1-7,8-7h11.3v5h-10.3c-0.8-0.1-1.6,0.1-2.3,0.4
			c-0.9,0.6-1.1,1.9-0.5,2.8c0.2,0.3,0.5,0.5,0.9,0.7c0.7,0.2,1.5,0.3,2.2,0.3l3,0.1c3.1,0.1,5.1,0.6,6.4,1.9c1.2,1.4,1.8,3.2,1.7,5
			C778.6,132.1,775.4,134.4,769.8,134.4z"/>
		<polygon class="st9" points="743.1,85.1 750.9,85.1 747,75.7 		"/>
		<polygon class="st9" points="609.8,85.1 617.5,85.1 613.7,75.7 		"/>
		<path class="st9" d="M702.2,77.1c-0.8-0.3-1.8-0.5-2.7-0.4h-6.9v5.2h6.8c1,0.1,1.9-0.1,2.8-0.5c0.8-0.5,1.2-1.3,1.2-2.2
			C703.4,78.3,702.9,77.5,702.2,77.1z"/>
		<path class="st9" d="M774.4,67.1v3.8l-2.2-3.8h-16v3.8l-2-3.8h-21.6c-3.2-0.2-6.5,0.5-9.4,1.9v-1.9h-14.9V69
			c-1.8-1.4-4.1-2.1-6.4-1.9h-54.5l-3.7,8.5l-3.8-8.5h-17.1v3.8l-1.9-3.8h-14.7l-6.7,15.6l-8,17.3l8-0.1h9.6l2.2-5.2h4.9l2.2,5.2
			h18.9v-4l1.7,4h9.8l1.7-4.1v4h46.9v-8.6h0.9c0.6,0,0.8,0.1,0.8,1.1v7.4h24.3v-2c2.8,1.4,5.9,2.1,9,2h10.2l2.2-5.2h4.8l2.1,5.2
			h19.7v-5l3,5H790V67.1H774.4z M654.4,95.2V76.8l-8.1,18.4h-4.9l-8.2-18.4v18.4h-11.5l-2.2-5.2h-11.7l-2.2,5.2h-6.1l10.1-23.5h8.3
			l9.6,22.2V71.7h9.2l7.3,15.9l6.8-15.9h9.4v23.5H654.4z M683.1,76.6h-13.2v4.3h12.8v4.8h-12.8v4.7h13.2v4.9h-18.8V71.7h18.8V76.6z
			 M708.4,86.3c0.8,1.3,1.1,2.8,0.9,4.3v4.6h-5.7v-3c0-1.4,0.1-3.5-0.9-4.6c-0.8-0.8-2.1-1-4.1-1h-6.1v8.5H687V71.7h12.9
			c2.9,0,5,0.1,6.8,1.1c1.9,1,3,3.1,2.8,5.2c0.1,2.7-1.5,5.2-4,6.3C706.7,84.7,707.6,85.4,708.4,86.3L708.4,86.3z M718.5,95.2h-5.7
			V71.7h5.7V95.2z M785,95.2h-8l-10.6-17.6v17.6H755l-2.2-5.2h-11.7l-2.1,5.2h-6.6c-2.7,0-6.2-0.6-8.1-2.5c-1.9-1.9-3-4.7-3-8.9
			c0-3.5,0.6-6.7,3-9.2c1.8-1.9,4.7-2.7,8.5-2.7h5.5V77h-5.3c-1.6-0.2-3.1,0.3-4.3,1.4c-1.1,1.5-1.7,3.3-1.6,5.1
			c-0.2,2,0.4,3.9,1.6,5.5c1.1,0.9,2.5,1.4,3.9,1.3h2.5l7.9-18.5h8.4l9.5,22.2V71.7h8.6l9.9,16.4V71.7h5.8V95.2z"/>
	</g>
	<g id="Discover">
		
			<linearGradient id="SVGID_00000018953099458940205280000000596872156216131474_" gradientUnits="userSpaceOnUse" x1="842.4731" y1="102" x2="1102.25" y2="102" gradientTransform="matrix(1 0 0 -1 0 202)">
			<stop  offset="0" style="stop-color:#FFFFFF"/>
			<stop  offset="1" style="stop-color:#BDBDBD"/>
		</linearGradient>
		<path style="fill:url(#SVGID_00000018953099458940205280000000596872156216131474_);" d="M867.3,18.9h210.1
			c13.7,0,24.9,11.1,24.9,24.9v112.5c0,13.7-11.1,24.9-24.9,24.9H867.3c-13.7,0-24.9-11.1-24.9-24.9V43.7
			C842.5,30,853.6,18.9,867.3,18.9z"/>
		<path d="M872.8,91.7c0,0,14.1,1.6,14.1-10.9v-0.2c0-12.5-14.1-10.9-14.1-10.9V91.7z M866.4,63.8h11.1c6.6,0,16.3,6,16.3,16.6v0.3
			c0,10.6-9.7,16.6-16.3,16.6h-11L866.4,63.8z"/>
		<rect x="896.6" y="63.8" width="6.7" height="33.6"/>
		<path class="st11" d="M923.9,71.5c-1.3-1.5-3.2-2.4-5.2-2.5c-3,0-4.7,2-4.7,3.4s-0.1,2.3,4.2,4s10.5,3,10.5,10.5
			c0.2,6-4.6,11.1-10.6,11.3c-0.2,0-0.4,0-0.5,0c-4.8,0-9.4-2.3-12-6.4l4.2-4.2c0,0,2.7,4.5,7.3,4.5s4.9-3.5,4.9-4.7
			c0-1.7-1-3.4-3.8-4.5c-2.8-1-10.7-2-10.7-9.7c0-6.8,5.1-10.1,10.7-10.1c5.1,0,9.5,4,9.5,4L923.9,71.5z"/>
		<path class="st11" d="M956.5,72.9c-4.3-4.6-11.5-4.8-16-0.5c-4.6,4.3-4.8,11.5-0.5,16c2.2,2.3,5.2,3.6,8.4,3.6
			c3.1-0.1,6-1.4,8.2-3.7v7.9c-8.7,4.5-19.3,1.2-23.9-7.5s-1.2-19.3,7.5-23.9c5.1-2.7,11.3-2.7,16.4,0L956.5,72.9z"/>
		<polygon points="993.1,63.8 1000.3,63.8 1009.6,85.8 1018.3,63.8 1025.5,63.8 1011.4,98.2 1007.2,98.2 		"/>
		<path d="M1057.5,69.4v9.8h3.6c2.5-0.1,4.5-2.1,4.5-4.6v-0.4c0-2.5-2-4.6-4.5-4.7L1057.5,69.4z M1051,63.8h11
			c3.5,0,10.4,1.9,10.4,9.9c0.1,4.5-2.8,8.5-7.2,9.7l10.3,14h-8.1l-9.1-13.4h-0.7v13.4h-6.5L1051,63.8z"/>
		<polygon points="1046.1,77 1046.1,82.9 1034.7,82.9 1034.7,91.4 1046.6,91.4 1046.6,97.3 1028,97.3 1028,63.8 1046.6,63.8 
			1046.6,69.7 1034.7,69.7 1034.7,77 		"/>
		<path class="st11" d="M924.2,105.9l7.4,7.1c0.3,0.3,0.5,0.5,0.6,0.6c0.1,0.2,0.4,0.4,0.6,0.8v-8h1.7v12l-7.5-7.2
			c-0.4-0.4-0.8-0.8-1.1-1.3v8h-1.7V105.9z"/>
		<polygon class="st11" points="940.3,106.4 946.8,106.4 946.8,108 942.2,108 942.2,110.9 946.8,110.9 946.8,112.5 942.2,112.5 
			942.2,116.3 946.8,116.3 946.8,117.9 940.3,117.9 		"/>
		<polygon class="st11" points="955.3,118 953.4,118 953.4,107.9 950.9,107.9 950.9,106.3 957.8,106.3 957.8,107.9 955.3,107.9 		
			"/>
		<path class="st11" d="M963.7,106.4l2.2,5.8c0.1,0.3,0.2,0.6,0.3,0.9c0.1,0.3,0.2,0.6,0.3,0.9c0.1-0.4,0.3-0.8,0.4-1.3l0.2-0.7
			l2.3-6.2l2.4,6.3c0.2,0.6,0.4,1.2,0.6,1.8c0-0.2,0.1-0.5,0.2-0.8s0.2-0.7,0.3-1l2.2-5.9h1.9l-4.5,12l-2.6-6.6
			c-0.2-0.5-0.4-1.1-0.6-1.6c-0.2,0.6-0.3,1.1-0.5,1.7l-2.5,6.6l-4.5-12H963.7z"/>
		<path class="st11" d="M990.8,116.5c-1.2,1.2-2.7,1.8-4.4,1.8c-1.7,0-3.2-0.6-4.4-1.8c-1.2-1.1-1.8-2.7-1.8-4.3
			c0-1.6,0.6-3.2,1.8-4.3c2.4-2.4,6.3-2.4,8.7,0c2.4,2.3,2.4,6.1,0.1,8.5C990.9,116.5,990.8,116.5,990.8,116.5L990.8,116.5z
			 M989.4,109.2c-0.8-0.8-1.9-1.3-3-1.3c-1-0.1-2,0.3-2.7,0.9c-0.5,0.5-1,1.1-1.3,1.7c-0.2,0.5-0.3,1.1-0.3,1.7
			c0,1.2,0.4,2.3,1.3,3.1c0.8,0.8,1.9,1.3,3,1.3c1.1,0,2.2-0.4,3-1.3c0.8-0.8,1.3-1.9,1.3-3.1C990.7,111.1,990.2,109.9,989.4,109.2
			L989.4,109.2z"/>
		<path class="st11" d="M998.8,117.9H997v-11.6h2.6c0.6,0,1.1,0,1.7,0.1c0.9,0.2,1.6,0.8,2,1.6c0.2,0.5,0.3,1,0.3,1.5
			c0.2,1.5-0.8,2.9-2.3,3.1c-0.1,0-0.2,0-0.3,0l4,5.3h-2.1l-3.8-5.2h-0.2L998.8,117.9z M999.2,111.3c0.7,0,1.3-0.1,1.9-0.3
			c0.4-0.2,0.5-0.6,0.5-1.3c0.1-0.5-0.1-1-0.6-1.4c-0.6-0.3-1.3-0.4-1.9-0.4h-0.3v3.3L999.2,111.3z"/>
		<polygon class="st11" points="1008.9,106.4 1010.8,106.4 1010.8,111.2 1015,106.4 1017.3,106.4 1012.7,111.5 1017.8,117.9 
			1015.4,118 1010.8,112.1 1010.8,117.9 1008.9,117.9 		"/>
		<path class="st11" d="M1075.2,68.3v-2.8h1c0.2,0,0.4,0,0.5,0.1c0.1,0.1,0.2,0.2,0.3,0.3c0.1,0.1,0.1,0.3,0.1,0.4
			c0,0.2,0,0.4-0.2,0.5c-0.1,0.1-0.3,0.2-0.4,0.3c0.1,0.1,0.2,0.1,0.2,0.2c0.1,0.1,0.2,0.3,0.3,0.5l0.3,0.5h-0.5l-0.3-0.6
			c-0.1-0.1-0.2-0.3-0.2-0.4c0-0.1-0.1-0.1-0.1-0.1c-0.1,0-0.2,0-0.2,0h-0.1v1.2L1075.2,68.3z M1075.6,66.7h0.3c0.1,0,0.3,0,0.4,0
			c0.1,0,0.1-0.1,0.1-0.1c0-0.1,0-0.1,0-0.2c0-0.1,0-0.2-0.1-0.2c0-0.1-0.1-0.1-0.2-0.1h-0.7L1075.6,66.7z"/>
		<path class="st12" d="M1073.7,67c0-1.3,1-2.3,2.3-2.3c1.3,0,2.3,1,2.3,2.3c0,1.3-1,2.3-2.3,2.3c0,0,0,0,0,0
			C1074.7,69.3,1073.7,68.3,1073.7,67z"/>
		
			<radialGradient id="SVGID_00000032620092134893489840000016428339042418699397_" cx="976.8694" cy="121.2859" r="17.4203" gradientTransform="matrix(1 0 0 -1 0 202)" gradientUnits="userSpaceOnUse">
			<stop  offset="0" style="stop-color:#FFFFFF"/>
			<stop  offset="1" style="stop-color:#FF6600"/>
		</radialGradient>
		<circle style="fill:url(#SVGID_00000032620092134893489840000016428339042418699397_);" cx="976.9" cy="80.7" r="17.4"/>
		<path class="st14" d="M1102.2,156.2V89.7c-6,5-37.6,30.4-85.5,51.7c-38.5,18.8-91.8,33.1-118.8,39.7h179.4
			C1091.1,181.1,1102.2,170,1102.2,156.2z"/>
	</g>
</g>
</svg>
